<svg xmlns="http://www.w3.org/2000/svg" viewBox="0 0 512 512" width="512" height="512">
  <defs>
    <linearGradient id="grad" x1="0%" y1="0%" x2="100%" y2="100%">
      <stop offset="0%" style="stop-color:#4f46e5;stop-opacity:1" />
      <stop offset="100%" style="stop-color:#6366f1;stop-opacity:1" />
    </linearGradient>
  </defs>
  <rect width="512" height="512" rx="110" fill="url(#grad)" />
  <path d="M384 128H128c-23.5 0-42.7 19.2-42.7 42.7v170.7c0 23.5 19.2 42.7 42.7 42.7h256c23.5 0 42.7-19.2 42.7-42.7V170.7c0-23.5-19.2-42.7-42.7-42.7zm-128 128c35.4 0 64-28.6 64-64s-28.6-64-64-64-64 28.6-64 64 28.6 64 64 64zm128 128H128v-32c0-42.5 85.3-64 128-64s128 21.5 128 64v32z" fill="#ffffff" transform="scale(0.8) translate(64, 64)" />
</svg>
